<mxfile host="Electron" modified="2024-06-18T22:08:50.595Z" agent="Mozilla/5.0 (Windows NT 10.0; Win64; x64) AppleWebKit/537.36 (KHTML, like Gecko) draw.io/22.0.0 Chrome/114.0.5735.289 Electron/25.8.3 Safari/537.36" etag="CBMlqO3EhwTss1fXmR0u" version="22.0.0" type="device">
  <diagram name="Page-1" id="bkLmm-mtqCr0ykcM9KyC">
    <mxGraphModel dx="2074" dy="844" grid="0" gridSize="10" guides="1" tooltips="1" connect="1" arrows="1" fold="1" page="0" pageScale="1" pageWidth="827" pageHeight="1169" math="0" shadow="0">
      <root>
        <mxCell id="0" />
        <mxCell id="1" parent="0" />
        <mxCell id="4UgHD-f-7NCbtPTrwkLS-1" value="" style="rounded=0;whiteSpace=wrap;html=1;fillColor=#999999;" parent="1" vertex="1">
          <mxGeometry x="-124" y="20" width="904" height="51" as="geometry" />
        </mxCell>
        <mxCell id="4UgHD-f-7NCbtPTrwkLS-2" value="&lt;font style=&quot;font-size: 10px;&quot;&gt;(linkedin)&lt;/font&gt;" style="rounded=0;whiteSpace=wrap;html=1;" parent="1" vertex="1">
          <mxGeometry x="729" y="24" width="43" height="43" as="geometry" />
        </mxCell>
        <mxCell id="4UgHD-f-7NCbtPTrwkLS-3" value="&lt;font style=&quot;font-size: 10px;&quot;&gt;(Github)&lt;/font&gt;" style="rounded=0;whiteSpace=wrap;html=1;" parent="1" vertex="1">
          <mxGeometry x="678" y="24" width="43" height="43" as="geometry" />
        </mxCell>
        <mxCell id="4UgHD-f-7NCbtPTrwkLS-4" value="&lt;span style=&quot;font-size: 10px;&quot;&gt;(Gmail)&lt;/span&gt;" style="rounded=0;whiteSpace=wrap;html=1;" parent="1" vertex="1">
          <mxGeometry x="627" y="24" width="43" height="43" as="geometry" />
        </mxCell>
        <mxCell id="4UgHD-f-7NCbtPTrwkLS-5" value="Contact:" style="text;html=1;strokeColor=none;fillColor=none;align=center;verticalAlign=middle;whiteSpace=wrap;rounded=0;" parent="1" vertex="1">
          <mxGeometry x="559" y="30.5" width="60" height="30" as="geometry" />
        </mxCell>
        <mxCell id="4UgHD-f-7NCbtPTrwkLS-7" value="&lt;font style=&quot;font-size: 18px;&quot;&gt;Home&lt;/font&gt;" style="rounded=0;whiteSpace=wrap;html=1;" parent="1" vertex="1">
          <mxGeometry x="-115" y="24" width="96" height="43" as="geometry" />
        </mxCell>
        <mxCell id="4UgHD-f-7NCbtPTrwkLS-8" value="&lt;span style=&quot;font-size: 18px;&quot;&gt;Portfolio&lt;/span&gt;" style="rounded=0;whiteSpace=wrap;html=1;" parent="1" vertex="1">
          <mxGeometry x="-1" y="24" width="96" height="43" as="geometry" />
        </mxCell>
        <mxCell id="4UgHD-f-7NCbtPTrwkLS-9" value="&lt;span style=&quot;font-size: 18px;&quot;&gt;Resume&lt;/span&gt;" style="rounded=0;whiteSpace=wrap;html=1;" parent="1" vertex="1">
          <mxGeometry x="115" y="24" width="96" height="43" as="geometry" />
        </mxCell>
        <mxCell id="4UgHD-f-7NCbtPTrwkLS-11" value="" style="rounded=0;whiteSpace=wrap;html=1;fillColor=#B8B8B8;" parent="1" vertex="1">
          <mxGeometry x="-124" y="71" width="904" height="769" as="geometry" />
        </mxCell>
        <mxCell id="mw5SROczTiSt_QjMgUA5-1" value="&lt;span style=&quot;font-size: 36px;&quot;&gt;My Projects&lt;/span&gt;" style="text;html=1;strokeColor=none;fillColor=none;align=center;verticalAlign=middle;whiteSpace=wrap;rounded=0;" vertex="1" parent="1">
          <mxGeometry x="211" y="128" width="234" height="30" as="geometry" />
        </mxCell>
        <mxCell id="mw5SROczTiSt_QjMgUA5-2" value="(Project photo) (clickable photo link)" style="rounded=0;whiteSpace=wrap;html=1;" vertex="1" parent="1">
          <mxGeometry x="-97" y="211" width="130" height="125" as="geometry" />
        </mxCell>
        <mxCell id="mw5SROczTiSt_QjMgUA5-3" value="(Project Description and link)" style="rounded=0;whiteSpace=wrap;html=1;" vertex="1" parent="1">
          <mxGeometry x="43" y="211" width="703" height="125" as="geometry" />
        </mxCell>
        <mxCell id="mw5SROczTiSt_QjMgUA5-4" value="(Project photo) (clickable photo link)" style="rounded=0;whiteSpace=wrap;html=1;" vertex="1" parent="1">
          <mxGeometry x="-97" y="358" width="130" height="125" as="geometry" />
        </mxCell>
        <mxCell id="mw5SROczTiSt_QjMgUA5-5" value="(Project Description and link)" style="rounded=0;whiteSpace=wrap;html=1;" vertex="1" parent="1">
          <mxGeometry x="43" y="358" width="703" height="125" as="geometry" />
        </mxCell>
        <mxCell id="mw5SROczTiSt_QjMgUA5-6" value="(Project photo) (clickable photo link)" style="rounded=0;whiteSpace=wrap;html=1;" vertex="1" parent="1">
          <mxGeometry x="-97" y="513" width="130" height="125" as="geometry" />
        </mxCell>
        <mxCell id="mw5SROczTiSt_QjMgUA5-7" value="(Project Description and link)" style="rounded=0;whiteSpace=wrap;html=1;" vertex="1" parent="1">
          <mxGeometry x="43" y="513" width="703" height="125" as="geometry" />
        </mxCell>
        <mxCell id="mw5SROczTiSt_QjMgUA5-8" value="(Project photo) (clickable photo link)" style="rounded=0;whiteSpace=wrap;html=1;" vertex="1" parent="1">
          <mxGeometry x="-97" y="664" width="130" height="125" as="geometry" />
        </mxCell>
        <mxCell id="mw5SROczTiSt_QjMgUA5-9" value="(Project Description and link)" style="rounded=0;whiteSpace=wrap;html=1;" vertex="1" parent="1">
          <mxGeometry x="43" y="664" width="703" height="125" as="geometry" />
        </mxCell>
      </root>
    </mxGraphModel>
  </diagram>
</mxfile>
